<mxfile host="65bd71144e">
    <diagram id="C5RBs43oDa-KdzZeNtuy" name="Page-1">
        <mxGraphModel dx="643" dy="599" grid="1" gridSize="10" guides="1" tooltips="1" connect="1" arrows="1" fold="1" page="1" pageScale="1" pageWidth="827" pageHeight="1169" math="0" shadow="0">
            <root>
                <mxCell id="WIyWlLk6GJQsqaUBKTNV-0"/>
                <mxCell id="WIyWlLk6GJQsqaUBKTNV-1" parent="WIyWlLk6GJQsqaUBKTNV-0"/>
                <mxCell id="WIyWlLk6GJQsqaUBKTNV-3" value="预处理器" style="rounded=1;whiteSpace=wrap;html=1;fontSize=12;glass=0;strokeWidth=1;shadow=0;fillColor=#d5e8d4;strokeColor=#82b366;" parent="WIyWlLk6GJQsqaUBKTNV-1" vertex="1">
                    <mxGeometry x="170" y="79.5" width="70" height="40" as="geometry"/>
                </mxCell>
                <mxCell id="4_ZEDK8cBFlGZxIGRIiw-2" value="" style="edgeStyle=orthogonalEdgeStyle;rounded=0;orthogonalLoop=1;jettySize=auto;html=1;" parent="WIyWlLk6GJQsqaUBKTNV-1" source="4_ZEDK8cBFlGZxIGRIiw-1" target="WIyWlLk6GJQsqaUBKTNV-3" edge="1">
                    <mxGeometry relative="1" as="geometry"/>
                </mxCell>
                <mxCell id="4_ZEDK8cBFlGZxIGRIiw-1" value="" style="sketch=0;outlineConnect=0;fontColor=#232F3E;gradientColor=none;fillColor=#232F3D;strokeColor=none;dashed=0;verticalLabelPosition=bottom;verticalAlign=top;align=center;html=1;fontSize=12;fontStyle=0;aspect=fixed;pointerEvents=1;shape=mxgraph.aws4.source_code;" parent="WIyWlLk6GJQsqaUBKTNV-1" vertex="1">
                    <mxGeometry x="110" y="79.5" width="28.5" height="39" as="geometry"/>
                </mxCell>
                <mxCell id="4_ZEDK8cBFlGZxIGRIiw-3" value="源程序" style="text;html=1;align=center;verticalAlign=middle;resizable=0;points=[];autosize=1;strokeColor=none;fillColor=none;" parent="WIyWlLk6GJQsqaUBKTNV-1" vertex="1">
                    <mxGeometry x="94.25" y="114" width="60" height="30" as="geometry"/>
                </mxCell>
                <mxCell id="4_ZEDK8cBFlGZxIGRIiw-4" value="编译器" style="rounded=1;whiteSpace=wrap;html=1;fontSize=12;glass=0;strokeWidth=1;shadow=0;fillColor=#dae8fc;strokeColor=#6c8ebf;" parent="WIyWlLk6GJQsqaUBKTNV-1" vertex="1">
                    <mxGeometry x="330" y="79" width="70" height="40" as="geometry"/>
                </mxCell>
                <mxCell id="4_ZEDK8cBFlGZxIGRIiw-9" style="edgeStyle=orthogonalEdgeStyle;rounded=0;orthogonalLoop=1;jettySize=auto;html=1;exitX=1;exitY=0.5;exitDx=0;exitDy=0;exitPerimeter=0;entryX=0;entryY=0.5;entryDx=0;entryDy=0;" parent="WIyWlLk6GJQsqaUBKTNV-1" source="4_ZEDK8cBFlGZxIGRIiw-7" target="4_ZEDK8cBFlGZxIGRIiw-4" edge="1">
                    <mxGeometry relative="1" as="geometry"/>
                </mxCell>
                <mxCell id="4_ZEDK8cBFlGZxIGRIiw-7" value="" style="sketch=0;aspect=fixed;pointerEvents=1;shadow=0;dashed=0;html=1;strokeColor=none;labelPosition=center;verticalLabelPosition=bottom;verticalAlign=top;align=center;fillColor=#660033;shape=mxgraph.mscae.enterprise.code_file" parent="WIyWlLk6GJQsqaUBKTNV-1" vertex="1">
                    <mxGeometry x="270" y="85" width="28.42" height="29" as="geometry"/>
                </mxCell>
                <mxCell id="4_ZEDK8cBFlGZxIGRIiw-8" style="edgeStyle=orthogonalEdgeStyle;rounded=0;orthogonalLoop=1;jettySize=auto;html=1;exitX=1;exitY=0.5;exitDx=0;exitDy=0;entryX=0;entryY=0.5;entryDx=0;entryDy=0;entryPerimeter=0;" parent="WIyWlLk6GJQsqaUBKTNV-1" source="WIyWlLk6GJQsqaUBKTNV-3" target="4_ZEDK8cBFlGZxIGRIiw-7" edge="1">
                    <mxGeometry relative="1" as="geometry"/>
                </mxCell>
                <mxCell id="4_ZEDK8cBFlGZxIGRIiw-10" value="&lt;font style=&quot;font-size: 10px;&quot;&gt;经过预处理的源程序&lt;/font&gt;" style="text;html=1;align=center;verticalAlign=middle;resizable=0;points=[];autosize=1;strokeColor=none;fillColor=none;" parent="WIyWlLk6GJQsqaUBKTNV-1" vertex="1">
                    <mxGeometry x="229.21" y="114" width="110" height="30" as="geometry"/>
                </mxCell>
                <mxCell id="0" style="edgeStyle=none;html=1;exitX=1;exitY=0.5;exitDx=0;exitDy=0;exitPerimeter=0;entryX=0;entryY=0.5;entryDx=0;entryDy=0;" edge="1" parent="WIyWlLk6GJQsqaUBKTNV-1" source="4_ZEDK8cBFlGZxIGRIiw-12" target="4_ZEDK8cBFlGZxIGRIiw-15">
                    <mxGeometry relative="1" as="geometry"/>
                </mxCell>
                <mxCell id="4_ZEDK8cBFlGZxIGRIiw-12" value="" style="verticalLabelPosition=bottom;html=1;verticalAlign=top;align=center;strokeColor=none;fillColor=#000066;shape=mxgraph.azure.code_file;pointerEvents=1;" parent="WIyWlLk6GJQsqaUBKTNV-1" vertex="1">
                    <mxGeometry x="430" y="89" width="20" height="20" as="geometry"/>
                </mxCell>
                <mxCell id="4_ZEDK8cBFlGZxIGRIiw-13" style="edgeStyle=orthogonalEdgeStyle;rounded=0;orthogonalLoop=1;jettySize=auto;html=1;exitX=1;exitY=0.5;exitDx=0;exitDy=0;entryX=0;entryY=0.5;entryDx=0;entryDy=0;entryPerimeter=0;" parent="WIyWlLk6GJQsqaUBKTNV-1" source="4_ZEDK8cBFlGZxIGRIiw-4" target="4_ZEDK8cBFlGZxIGRIiw-12" edge="1">
                    <mxGeometry relative="1" as="geometry"/>
                </mxCell>
                <mxCell id="4_ZEDK8cBFlGZxIGRIiw-18" style="edgeStyle=orthogonalEdgeStyle;rounded=0;orthogonalLoop=1;jettySize=auto;html=1;exitX=1;exitY=0.5;exitDx=0;exitDy=0;" parent="WIyWlLk6GJQsqaUBKTNV-1" source="4_ZEDK8cBFlGZxIGRIiw-15" edge="1">
                    <mxGeometry relative="1" as="geometry">
                        <mxPoint x="570" y="99.68965517241384" as="targetPoint"/>
                    </mxGeometry>
                </mxCell>
                <mxCell id="4_ZEDK8cBFlGZxIGRIiw-15" value="汇编器" style="rounded=1;whiteSpace=wrap;html=1;fontSize=12;glass=0;strokeWidth=1;shadow=0;fillColor=#ffe6cc;strokeColor=#d79b00;" parent="WIyWlLk6GJQsqaUBKTNV-1" vertex="1">
                    <mxGeometry x="470" y="80" width="70" height="40" as="geometry"/>
                </mxCell>
                <mxCell id="4_ZEDK8cBFlGZxIGRIiw-17" value="&lt;font style=&quot;font-size: 10px;&quot;&gt;目标汇编程序&lt;/font&gt;" style="text;html=1;align=center;verticalAlign=middle;resizable=0;points=[];autosize=1;strokeColor=none;fillColor=none;" parent="WIyWlLk6GJQsqaUBKTNV-1" vertex="1">
                    <mxGeometry x="400" y="114" width="80" height="30" as="geometry"/>
                </mxCell>
                <mxCell id="4_ZEDK8cBFlGZxIGRIiw-22" value="" style="edgeStyle=orthogonalEdgeStyle;rounded=0;orthogonalLoop=1;jettySize=auto;html=1;" parent="WIyWlLk6GJQsqaUBKTNV-1" source="4_ZEDK8cBFlGZxIGRIiw-19" target="4_ZEDK8cBFlGZxIGRIiw-21" edge="1">
                    <mxGeometry relative="1" as="geometry"/>
                </mxCell>
                <mxCell id="4_ZEDK8cBFlGZxIGRIiw-19" value="" style="sketch=0;pointerEvents=1;shadow=0;dashed=0;html=1;strokeColor=none;fillColor=#006633;labelPosition=center;verticalLabelPosition=bottom;verticalAlign=top;align=center;outlineConnect=0;shape=mxgraph.veeam2.data_file;" parent="WIyWlLk6GJQsqaUBKTNV-1" vertex="1">
                    <mxGeometry x="570" y="85" width="20" height="28" as="geometry"/>
                </mxCell>
                <mxCell id="4_ZEDK8cBFlGZxIGRIiw-20" value="&lt;font style=&quot;font-size: 10px;&quot;&gt;可重定位机器代码&lt;/font&gt;" style="text;html=1;align=center;verticalAlign=middle;resizable=0;points=[];autosize=1;strokeColor=none;fillColor=none;" parent="WIyWlLk6GJQsqaUBKTNV-1" vertex="1">
                    <mxGeometry x="530" y="114" width="100" height="30" as="geometry"/>
                </mxCell>
                <mxCell id="4_ZEDK8cBFlGZxIGRIiw-23" style="edgeStyle=orthogonalEdgeStyle;rounded=0;orthogonalLoop=1;jettySize=auto;html=1;exitX=1;exitY=0.5;exitDx=0;exitDy=0;" parent="WIyWlLk6GJQsqaUBKTNV-1" source="4_ZEDK8cBFlGZxIGRIiw-21" target="4_ZEDK8cBFlGZxIGRIiw-24" edge="1">
                    <mxGeometry relative="1" as="geometry">
                        <mxPoint x="730" y="99.68965517241384" as="targetPoint"/>
                    </mxGeometry>
                </mxCell>
                <mxCell id="4_ZEDK8cBFlGZxIGRIiw-21" value="链接器/加载器" style="rounded=1;whiteSpace=wrap;html=1;fontSize=12;glass=0;strokeWidth=1;shadow=0;fillColor=#f8cecc;strokeColor=#b85450;" parent="WIyWlLk6GJQsqaUBKTNV-1" vertex="1">
                    <mxGeometry x="620" y="79.5" width="80" height="40" as="geometry"/>
                </mxCell>
                <mxCell id="4_ZEDK8cBFlGZxIGRIiw-24" value="" style="shadow=0;dashed=0;html=1;strokeColor=none;fillColor=#4495D1;labelPosition=center;verticalLabelPosition=bottom;verticalAlign=top;align=center;outlineConnect=0;shape=mxgraph.veeam.data_file;" parent="WIyWlLk6GJQsqaUBKTNV-1" vertex="1">
                    <mxGeometry x="730" y="82" width="30" height="35" as="geometry"/>
                </mxCell>
                <mxCell id="4_ZEDK8cBFlGZxIGRIiw-25" value="&lt;font style=&quot;font-size: 10px;&quot;&gt;目标机器代码&lt;/font&gt;" style="text;html=1;align=center;verticalAlign=middle;resizable=0;points=[];autosize=1;strokeColor=none;fillColor=none;" parent="WIyWlLk6GJQsqaUBKTNV-1" vertex="1">
                    <mxGeometry x="700" y="114" width="80" height="30" as="geometry"/>
                </mxCell>
                <mxCell id="4_ZEDK8cBFlGZxIGRIiw-28" value="" style="edgeStyle=orthogonalEdgeStyle;rounded=0;orthogonalLoop=1;jettySize=auto;html=1;" parent="WIyWlLk6GJQsqaUBKTNV-1" source="4_ZEDK8cBFlGZxIGRIiw-27" target="4_ZEDK8cBFlGZxIGRIiw-21" edge="1">
                    <mxGeometry relative="1" as="geometry"/>
                </mxCell>
                <mxCell id="4_ZEDK8cBFlGZxIGRIiw-27" value="" style="sketch=0;pointerEvents=1;shadow=0;dashed=0;html=1;strokeColor=none;fillColor=#005F4B;labelPosition=center;verticalLabelPosition=bottom;verticalAlign=top;align=center;outlineConnect=0;shape=mxgraph.veeam2.metadata_file;" parent="WIyWlLk6GJQsqaUBKTNV-1" vertex="1">
                    <mxGeometry x="650" y="30" width="20" height="29" as="geometry"/>
                </mxCell>
                <mxCell id="4_ZEDK8cBFlGZxIGRIiw-29" value="&lt;font style=&quot;font-size: 10px;&quot;&gt;库文件&lt;/font&gt;&lt;div&gt;&lt;font style=&quot;font-size: 10px;&quot;&gt;可重定位对象文件&lt;/font&gt;&lt;/div&gt;" style="text;html=1;align=left;verticalAlign=middle;resizable=0;points=[];autosize=1;strokeColor=none;fillColor=none;" parent="WIyWlLk6GJQsqaUBKTNV-1" vertex="1">
                    <mxGeometry x="680" y="24.5" width="100" height="40" as="geometry"/>
                </mxCell>
            </root>
        </mxGraphModel>
    </diagram>
</mxfile>